<?xml version="1.0"?>
<svg xmlns="http://www.w3.org/2000/svg" viewBox="0 0 80 80">
    <path d="M 38.5 6 C 35.474423 6 33 8.4744232 33 11.5 L 33 12.355469 C 32.041389 11.544974 30.846363 11 29.5 11 C 26.474423 11 24 13.474423 24 16.5 L 24 45 L 24 47.972656 L 19.457031 43.314453 C 16.413618 40.193267 11.368612 40.183435 8.3125 43.291016 L 6.421875 45.212891 L 14.445312 53.847656 C 14.524102 54.027478 15.842155 57.062912 18.1875 60.759766 C 20.579209 64.529701 23.911078 68.826455 28.003906 70.980469 C 29.672294 72.236944 31.748714 73 34 73 L 49 73 C 55.615466 73 61 67.615466 61 61 L 61 52 L 61 45 L 61 24 C 61 21.250484 58.749516 19 56 19 C 54.855016 19 53.845423 19.455322 53 20.109375 L 53 15.5 C 53 12.474423 50.525577 10 47.5 10 C 46.142567 10 44.936471 10.550586 43.974609 11.373047 C 43.902651 8.4089241 41.480661 6 38.5 6 z M 38.5 8 C 40.444423 8 42 9.5555768 42 11.5 L 42 15.5 L 44 15.5 C 44 13.555577 45.555577 12 47.5 12 C 49.444423 12 51 13.555577 51 15.5 L 51 24 L 53 24 C 53 22.331516 54.331516 21 56 21 C 57.668484 21 59 22.331516 59 24 L 59 45 L 59 52 L 59 61 C 59 66.534534 54.534534 71 49 71 L 34 71 C 32.181833 71 30.519283 70.39009 29.173828 69.367188 L 29.105469 69.314453 L 29.027344 69.273438 C 25.496962 67.456036 22.202533 63.353199 19.876953 59.6875 C 17.551373 56.021801 16.169922 52.847656 16.169922 52.847656 L 16.101562 52.691406 L 9.1894531 45.251953 L 9.7382812 44.693359 C 12.026176 42.36694 15.746804 42.374123 18.025391 44.710938 L 26 52.888672 L 26 45 L 26 16.5 C 26 14.555577 27.555577 13 29.5 13 C 31.444423 13 33 14.555577 33 16.5 L 35 16.5 L 35 11.5 C 35 9.5555768 36.555577 8 38.5 8 z M 34 18 A 1 1 0 0 0 33 19 A 1 1 0 0 0 34 20 A 1 1 0 0 0 35 19 A 1 1 0 0 0 34 18 z M 43 18 A 1 1 0 0 0 42 19 A 1 1 0 0 0 43 20 A 1 1 0 0 0 44 19 A 1 1 0 0 0 43 18 z M 34 22 A 1 1 0 0 0 33 23 A 1 1 0 0 0 34 24 A 1 1 0 0 0 35 23 A 1 1 0 0 0 34 22 z M 43 22 A 1 1 0 0 0 42 23 A 1 1 0 0 0 43 24 A 1 1 0 0 0 44 23 A 1 1 0 0 0 43 22 z M 34 26 A 1 1 0 0 0 33 27 A 1 1 0 0 0 34 28 A 1 1 0 0 0 35 27 A 1 1 0 0 0 34 26 z M 43 26 A 1 1 0 0 0 42 27 A 1 1 0 0 0 43 28 A 1 1 0 0 0 44 27 A 1 1 0 0 0 43 26 z M 52 26 A 1 1 0 0 0 51 27 A 1 1 0 0 0 52 28 A 1 1 0 0 0 53 27 A 1 1 0 0 0 52 26 z M 34 30 A 1 1 0 0 0 33 31 A 1 1 0 0 0 34 32 A 1 1 0 0 0 35 31 A 1 1 0 0 0 34 30 z M 43 30 A 1 1 0 0 0 42 31 A 1 1 0 0 0 43 32 A 1 1 0 0 0 44 31 A 1 1 0 0 0 43 30 z M 52 30 A 1 1 0 0 0 51 31 A 1 1 0 0 0 52 32 A 1 1 0 0 0 53 31 A 1 1 0 0 0 52 30 z M 34 34 A 1 1 0 0 0 33 35 A 1 1 0 0 0 34 36 A 1 1 0 0 0 35 35 A 1 1 0 0 0 34 34 z M 43 34 A 1 1 0 0 0 42 35 A 1 1 0 0 0 43 36 A 1 1 0 0 0 44 35 A 1 1 0 0 0 43 34 z M 52 34 A 1 1 0 0 0 51 35 A 1 1 0 0 0 52 36 A 1 1 0 0 0 53 35 A 1 1 0 0 0 52 34 z M 34 38 A 1 1 0 0 0 33 39 A 1 1 0 0 0 34 40 A 1 1 0 0 0 35 39 A 1 1 0 0 0 34 38 z M 43 38 A 1 1 0 0 0 42 39 A 1 1 0 0 0 43 40 A 1 1 0 0 0 44 39 A 1 1 0 0 0 43 38 z M 52 38 A 1 1 0 0 0 51 39 A 1 1 0 0 0 52 40 A 1 1 0 0 0 53 39 A 1 1 0 0 0 52 38 z M 38.277344 47 C 34.816203 47 32 49.852113 32 53.332031 C 32 54.832209 32.720155 56.236163 33.677734 57.544922 C 34.635314 58.853681 35.867894 60.082221 37.089844 61.15625 C 39.533743 63.304309 41.964844 64.84375 41.964844 64.84375 L 42.5 65.185547 L 43.035156 64.84375 C 43.035156 64.84375 45.466257 63.304309 47.910156 61.15625 C 49.132106 60.082221 50.364686 58.853681 51.322266 57.544922 C 52.279845 56.236163 53 54.832209 53 53.332031 C 53 49.852113 50.183797 47 46.722656 47 C 45.047905 47 43.624397 47.782213 42.5 48.863281 C 41.375151 47.781889 39.951919 47 38.277344 47 z M 38.277344 49 C 39.680915 49 40.912631 49.67988 41.697266 50.738281 L 42.5 51.822266 L 43.302734 50.738281 C 44.086229 49.680319 45.317897 49 46.722656 49 C 49.091516 49 51 50.921949 51 53.332031 C 51 54.148854 50.532655 55.23754 49.708984 56.363281 C 48.885314 57.489022 47.742894 58.638873 46.589844 59.652344 C 44.550776 61.444577 42.947365 62.458769 42.5 62.75 C 42.052635 62.458769 40.449224 61.444577 38.410156 59.652344 C 37.257106 58.638873 36.114686 57.489022 35.291016 56.363281 C 34.467345 55.23754 34 54.148854 34 53.332031 C 34 50.921949 35.908484 49 38.277344 49 z"/>
</svg>
